<svg width="195" height="29" viewBox="0 0 195 29" fill="none" xmlns="http://www.w3.org/2000/svg">
<path d="M1.483 15.979C1.159 15.979 0.898 15.88 0.7 15.682C0.52 15.484 0.43 15.232 0.43 14.926V1.966C0.43 1.642 0.52 1.39 0.7 1.21C0.898 1.012 1.159 0.913 1.483 0.913C1.789 0.913 2.032 1.012 2.212 1.21C2.41 1.39 2.509 1.642 2.509 1.966V14.926C2.509 15.232 2.41 15.484 2.212 15.682C2.032 15.88 1.789 15.979 1.483 15.979ZM13.093 22C12.787 22 12.535 21.901 12.337 21.703C12.139 21.505 12.04 21.262 12.04 20.974V13.954C12.04 12.838 11.824 11.92 11.392 11.2C10.978 10.48 10.402 9.94 9.664 9.58C8.944 9.22 8.125 9.04 7.207 9.04C6.325 9.04 5.524 9.211 4.804 9.553C4.102 9.895 3.544 10.363 3.13 10.957C2.716 11.551 2.509 12.226 2.509 12.982H1.024C1.06 11.848 1.366 10.84 1.942 9.958C2.518 9.058 3.283 8.356 4.237 7.852C5.191 7.33 6.253 7.069 7.423 7.069C8.701 7.069 9.844 7.339 10.852 7.879C11.86 8.401 12.652 9.175 13.228 10.201C13.822 11.227 14.119 12.478 14.119 13.954V20.974C14.119 21.262 14.02 21.505 13.822 21.703C13.624 21.901 13.381 22 13.093 22ZM1.483 22C1.159 22 0.898 21.91 0.7 21.73C0.52 21.532 0.43 21.28 0.43 20.974V8.284C0.43 7.96 0.52 7.708 0.7 7.528C0.898 7.33 1.159 7.231 1.483 7.231C1.789 7.231 2.032 7.33 2.212 7.528C2.41 7.708 2.509 7.96 2.509 8.284V20.974C2.509 21.28 2.41 21.532 2.212 21.73C2.032 21.91 1.789 22 1.483 22ZM24.1295 22.108C22.7615 22.108 21.5735 21.802 20.5655 21.19C19.5575 20.56 18.7655 19.705 18.1895 18.625C17.6315 17.527 17.3525 16.267 17.3525 14.845C17.3525 14.575 17.4425 14.359 17.6225 14.197C17.8025 14.017 18.0365 13.927 18.3245 13.927H29.7995V15.628H18.1085L19.2695 14.791C19.2515 15.853 19.4405 16.798 19.8365 17.626C20.2325 18.454 20.7905 19.102 21.5105 19.57C22.2485 20.038 23.1215 20.272 24.1295 20.272C25.1555 20.272 26.0555 20.029 26.8295 19.543C27.6035 19.057 28.1975 18.391 28.6115 17.545C29.0435 16.681 29.2595 15.7 29.2595 14.602C29.2595 13.504 29.0165 12.532 28.5305 11.686C28.0625 10.84 27.4145 10.174 26.5865 9.688C25.7585 9.202 24.8045 8.959 23.7245 8.959C23.0765 8.959 22.4195 9.076 21.7535 9.31C21.1055 9.526 20.5835 9.805 20.1875 10.147C19.9895 10.309 19.7645 10.399 19.5125 10.417C19.2605 10.417 19.0445 10.345 18.8645 10.201C18.6305 9.985 18.5045 9.751 18.4865 9.499C18.4865 9.247 18.5945 9.031 18.8105 8.851C19.4045 8.347 20.1605 7.933 21.0785 7.609C21.9965 7.267 22.8785 7.096 23.7245 7.096C25.1825 7.096 26.4695 7.42 27.5855 8.068C28.7195 8.698 29.6015 9.58 30.2315 10.714C30.8795 11.848 31.2035 13.144 31.2035 14.602C31.2035 16.06 30.8975 17.356 30.2855 18.49C29.6915 19.624 28.8635 20.515 27.8015 21.163C26.7395 21.793 25.5155 22.108 24.1295 22.108ZM36.1514 12.901C36.2054 11.785 36.4934 10.786 37.0154 9.904C37.5554 9.022 38.2484 8.329 39.0944 7.825C39.9584 7.321 40.9124 7.069 41.9564 7.069C42.7844 7.069 43.4234 7.186 43.8734 7.42C44.3234 7.654 44.4944 7.996 44.3864 8.446C44.3144 8.716 44.1884 8.896 44.0084 8.986C43.8464 9.076 43.6394 9.112 43.3874 9.094C43.1534 9.076 42.8834 9.058 42.5774 9.04C41.5694 8.95 40.6694 9.058 39.8774 9.364C39.1034 9.652 38.4824 10.102 38.0144 10.714C37.5644 11.326 37.3394 12.055 37.3394 12.901H36.1514ZM36.3134 22C35.9894 22 35.7374 21.91 35.5574 21.73C35.3774 21.55 35.2874 21.298 35.2874 20.974V8.257C35.2874 7.933 35.3774 7.681 35.5574 7.501C35.7374 7.321 35.9894 7.231 36.3134 7.231C36.6374 7.231 36.8894 7.321 37.0694 7.501C37.2494 7.681 37.3394 7.933 37.3394 8.257V20.974C37.3394 21.298 37.2494 21.55 37.0694 21.73C36.8894 21.91 36.6374 22 36.3134 22ZM52.8106 22.135C51.7486 22.135 50.6956 21.955 49.6516 21.595C48.6076 21.235 47.7616 20.695 47.1136 19.975C46.9156 19.759 46.8346 19.516 46.8706 19.246C46.9066 18.976 47.0416 18.742 47.2756 18.544C47.5276 18.364 47.7886 18.292 48.0586 18.328C48.3286 18.364 48.5536 18.481 48.7336 18.679C49.1656 19.183 49.7326 19.57 50.4346 19.84C51.1546 20.11 51.9466 20.245 52.8106 20.245C54.1426 20.245 55.1056 20.02 55.6996 19.57C56.2936 19.102 56.5996 18.544 56.6176 17.896C56.6176 17.248 56.3116 16.717 55.6996 16.303C55.0876 15.871 54.0796 15.538 52.6756 15.304C50.8576 15.016 49.5256 14.512 48.6796 13.792C47.8336 13.072 47.4106 12.217 47.4106 11.227C47.4106 10.309 47.6536 9.544 48.1396 8.932C48.6256 8.32 49.2736 7.861 50.0836 7.555C50.8936 7.249 51.7846 7.096 52.7566 7.096C53.9626 7.096 54.9976 7.303 55.8616 7.717C56.7436 8.131 57.4546 8.689 57.9946 9.391C58.1746 9.625 58.2466 9.868 58.2106 10.12C58.1746 10.372 58.0306 10.579 57.7786 10.741C57.5626 10.867 57.3106 10.912 57.0226 10.876C56.7526 10.822 56.5186 10.687 56.3206 10.471C55.8706 9.949 55.3486 9.571 54.7546 9.337C54.1606 9.085 53.4766 8.959 52.7026 8.959C51.7126 8.959 50.9206 9.166 50.3266 9.58C49.7326 9.976 49.4356 10.48 49.4356 11.092C49.4356 11.506 49.5436 11.866 49.7596 12.172C49.9936 12.478 50.3806 12.748 50.9206 12.982C51.4786 13.216 52.2526 13.414 53.2426 13.576C54.5926 13.792 55.6546 14.116 56.4286 14.548C57.2206 14.962 57.7786 15.457 58.1026 16.033C58.4446 16.591 58.6156 17.203 58.6156 17.869C58.6156 18.715 58.3636 19.462 57.8596 20.11C57.3736 20.74 56.6896 21.235 55.8076 21.595C54.9436 21.955 53.9446 22.135 52.8106 22.135ZM52.6216 28.291C51.6496 28.291 50.8576 28.084 50.2456 27.67C49.6336 27.256 49.3276 26.797 49.3276 26.293C49.3276 26.023 49.4266 25.789 49.6246 25.591C49.8226 25.393 50.0566 25.294 50.3266 25.294C50.5246 25.294 50.6956 25.339 50.8396 25.429C51.0016 25.537 51.1456 25.681 51.2716 25.861C51.4156 26.059 51.5956 26.212 51.8116 26.32C52.0276 26.446 52.3066 26.509 52.6486 26.509C53.0626 26.509 53.4046 26.419 53.6746 26.239C53.9446 26.059 54.0796 25.807 54.0796 25.483C54.0796 25.141 53.9716 24.871 53.7556 24.673C53.5576 24.475 53.1976 24.313 52.6756 24.187C52.2436 24.097 51.9376 23.944 51.7576 23.728C51.5776 23.53 51.5776 23.188 51.7576 22.702L52.1896 21.595C52.2796 21.343 52.4146 21.145 52.5946 21.001C52.7926 20.857 53.0536 20.785 53.3776 20.785C53.7196 20.785 53.9716 20.911 54.1336 21.163C54.3136 21.397 54.3316 21.676 54.1876 22L53.7826 22.972C54.7186 23.206 55.3666 23.53 55.7266 23.944C56.1046 24.376 56.2936 24.889 56.2936 25.483C56.2936 25.987 56.1316 26.446 55.8076 26.86C55.4836 27.292 55.0426 27.634 54.4846 27.886C53.9446 28.156 53.3236 28.291 52.6216 28.291ZM68.9043 22.135C67.4463 22.135 66.1503 21.82 65.0163 21.19C63.9003 20.542 63.0183 19.651 62.3703 18.517C61.7403 17.383 61.4253 16.087 61.4253 14.629C61.4253 13.153 61.7223 11.857 62.3163 10.741C62.9283 9.607 63.7653 8.716 64.8273 8.068C65.8893 7.42 67.1133 7.096 68.4993 7.096C69.8673 7.096 71.0553 7.411 72.0633 8.041C73.0893 8.653 73.8813 9.508 74.4393 10.606C74.9973 11.704 75.2763 12.955 75.2763 14.359C75.2763 14.647 75.1863 14.881 75.0063 15.061C74.8263 15.223 74.5923 15.304 74.3043 15.304H62.8293V13.576H74.5203L73.3593 14.413C73.3773 13.369 73.1883 12.433 72.7923 11.605C72.3963 10.777 71.8293 10.129 71.0913 9.661C70.3713 9.193 69.5073 8.959 68.4993 8.959C67.4733 8.959 66.5733 9.202 65.7993 9.688C65.0253 10.174 64.4223 10.849 63.9903 11.713C63.5763 12.559 63.3693 13.531 63.3693 14.629C63.3693 15.727 63.6033 16.699 64.0713 17.545C64.5573 18.391 65.2143 19.057 66.0423 19.543C66.8703 20.029 67.8243 20.272 68.9043 20.272C69.5523 20.272 70.2003 20.164 70.8483 19.948C71.5143 19.714 72.0453 19.426 72.4413 19.084C72.6393 18.922 72.8643 18.841 73.1163 18.841C73.3683 18.823 73.5843 18.886 73.7643 19.03C73.9983 19.246 74.1153 19.48 74.1153 19.732C74.1333 19.984 74.0343 20.2 73.8183 20.38C73.2243 20.884 72.4683 21.307 71.5503 21.649C70.6323 21.973 69.7503 22.135 68.9043 22.135ZM81.3313 28.426C81.1873 28.426 81.0253 28.39 80.8453 28.318C80.2333 28.048 80.0623 27.616 80.3323 27.022L89.0533 7.798C89.3233 7.222 89.7553 7.06 90.3493 7.312C90.9613 7.564 91.1323 7.987 90.8623 8.581L82.1143 27.805C81.9343 28.219 81.6733 28.426 81.3313 28.426ZM84.3283 21.541C84.0583 21.667 83.8063 21.694 83.5723 21.622C83.3383 21.532 83.1493 21.352 83.0053 21.082L76.9843 8.608C76.8583 8.338 76.8403 8.086 76.9303 7.852C77.0203 7.618 77.2003 7.438 77.4703 7.312C77.7403 7.186 77.9923 7.168 78.2263 7.258C78.4603 7.33 78.6403 7.501 78.7663 7.771L84.6793 20.245C84.8233 20.515 84.8683 20.767 84.8143 21.001C84.7603 21.235 84.5983 21.415 84.3283 21.541ZM101.01 22.108C99.6063 22.108 98.3463 21.784 97.2303 21.136C96.1143 20.47 95.2323 19.57 94.5843 18.436C93.9363 17.302 93.6033 16.024 93.5853 14.602V2.29C93.5853 1.876 93.7113 1.543 93.9633 1.291C94.2333 1.039 94.5663 0.913 94.9623 0.913C95.3763 0.913 95.7093 1.039 95.9613 1.291C96.2133 1.543 96.3393 1.876 96.3393 2.29V9.58C96.9693 8.824 97.7253 8.23 98.6073 7.798C99.5073 7.348 100.488 7.123 101.55 7.123C102.864 7.123 104.043 7.456 105.087 8.122C106.131 8.77 106.95 9.661 107.544 10.795C108.156 11.911 108.462 13.18 108.462 14.602C108.462 16.024 108.129 17.302 107.463 18.436C106.815 19.57 105.933 20.47 104.817 21.136C103.701 21.784 102.432 22.108 101.01 22.108ZM101.01 19.678C101.928 19.678 102.747 19.462 103.467 19.03C104.187 18.58 104.754 17.968 105.168 17.194C105.6 16.42 105.816 15.556 105.816 14.602C105.816 13.63 105.6 12.766 105.168 12.01C104.754 11.254 104.187 10.66 103.467 10.228C102.747 9.778 101.928 9.553 101.01 9.553C100.11 9.553 99.2913 9.778 98.5533 10.228C97.8333 10.66 97.2663 11.254 96.8523 12.01C96.4383 12.766 96.2313 13.63 96.2313 14.602C96.2313 15.556 96.4383 16.42 96.8523 17.194C97.2663 17.968 97.8333 18.58 98.5533 19.03C99.2913 19.462 100.11 19.678 101.01 19.678ZM118.78 22.135C117.538 22.135 116.422 21.874 115.432 21.352C114.46 20.812 113.686 20.029 113.11 19.003C112.552 17.977 112.273 16.717 112.273 15.223V8.581C112.273 8.185 112.399 7.861 112.651 7.609C112.921 7.339 113.254 7.204 113.65 7.204C114.046 7.204 114.37 7.339 114.622 7.609C114.892 7.861 115.027 8.185 115.027 8.581V15.223C115.027 16.231 115.216 17.068 115.594 17.734C115.972 18.382 116.485 18.868 117.133 19.192C117.781 19.498 118.51 19.651 119.32 19.651C120.094 19.651 120.778 19.498 121.372 19.192C121.984 18.886 122.47 18.472 122.83 17.95C123.19 17.428 123.37 16.843 123.37 16.195H125.071C125.071 17.311 124.792 18.319 124.234 19.219C123.694 20.119 122.947 20.83 121.993 21.352C121.057 21.874 119.986 22.135 118.78 22.135ZM124.747 22C124.351 22 124.018 21.874 123.748 21.622C123.496 21.352 123.37 21.019 123.37 20.623V8.581C123.37 8.167 123.496 7.834 123.748 7.582C124.018 7.33 124.351 7.204 124.747 7.204C125.161 7.204 125.494 7.33 125.746 7.582C125.998 7.834 126.124 8.167 126.124 8.581V20.623C126.124 21.019 125.998 21.352 125.746 21.622C125.494 21.874 125.161 22 124.747 22ZM132.297 12.766C132.297 11.686 132.558 10.723 133.08 9.877C133.62 9.013 134.34 8.329 135.24 7.825C136.14 7.321 137.13 7.069 138.21 7.069C139.29 7.069 140.091 7.249 140.613 7.609C141.153 7.951 141.36 8.365 141.234 8.851C141.18 9.103 141.072 9.301 140.91 9.445C140.766 9.571 140.595 9.652 140.397 9.688C140.199 9.724 139.983 9.715 139.749 9.661C138.597 9.427 137.562 9.409 136.644 9.607C135.726 9.805 134.997 10.174 134.457 10.714C133.935 11.254 133.674 11.938 133.674 12.766H132.297ZM132.324 22C131.892 22 131.559 21.892 131.325 21.676C131.091 21.442 130.974 21.1 130.974 20.65V8.581C130.974 8.149 131.091 7.816 131.325 7.582C131.559 7.348 131.892 7.231 132.324 7.231C132.774 7.231 133.107 7.348 133.323 7.582C133.557 7.798 133.674 8.131 133.674 8.581V20.65C133.674 21.082 133.557 21.415 133.323 21.649C133.107 21.883 132.774 22 132.324 22ZM149.18 22.108C147.866 22.108 146.687 21.784 145.643 21.136C144.599 20.47 143.771 19.579 143.159 18.463C142.565 17.329 142.268 16.051 142.268 14.629C142.268 13.207 142.592 11.929 143.24 10.795C143.906 9.661 144.797 8.77 145.913 8.122C147.047 7.456 148.316 7.123 149.72 7.123C151.124 7.123 152.384 7.456 153.5 8.122C154.616 8.77 155.498 9.661 156.146 10.795C156.812 11.929 157.145 13.207 157.145 14.629H156.092C156.092 16.051 155.786 17.329 155.174 18.463C154.58 19.579 153.761 20.47 152.717 21.136C151.673 21.784 150.494 22.108 149.18 22.108ZM149.72 19.678C150.638 19.678 151.457 19.462 152.177 19.03C152.897 18.58 153.464 17.977 153.878 17.221C154.292 16.447 154.499 15.583 154.499 14.629C154.499 13.657 154.292 12.793 153.878 12.037C153.464 11.263 152.897 10.66 152.177 10.228C151.457 9.778 150.638 9.553 149.72 9.553C148.82 9.553 148.001 9.778 147.263 10.228C146.543 10.66 145.967 11.263 145.535 12.037C145.121 12.793 144.914 13.657 144.914 14.629C144.914 15.583 145.121 16.447 145.535 17.221C145.967 17.977 146.543 18.58 147.263 19.03C148.001 19.462 148.82 19.678 149.72 19.678ZM155.768 22.027C155.372 22.027 155.039 21.901 154.769 21.649C154.517 21.379 154.391 21.046 154.391 20.65V16.519L154.904 13.657L157.145 14.629V20.65C157.145 21.046 157.01 21.379 156.74 21.649C156.488 21.901 156.164 22.027 155.768 22.027ZM167.939 22.108C166.535 22.108 165.266 21.784 164.132 21.136C163.016 20.47 162.125 19.57 161.459 18.436C160.811 17.302 160.487 16.024 160.487 14.602C160.487 13.18 160.784 11.911 161.378 10.795C161.99 9.661 162.818 8.77 163.862 8.122C164.906 7.456 166.085 7.123 167.399 7.123C168.461 7.123 169.442 7.348 170.342 7.798C171.242 8.23 171.998 8.824 172.61 9.58V2.29C172.61 1.876 172.736 1.543 172.988 1.291C173.258 1.039 173.591 0.913 173.987 0.913C174.401 0.913 174.734 1.039 174.986 1.291C175.238 1.543 175.364 1.876 175.364 2.29V14.602C175.364 16.024 175.031 17.302 174.365 18.436C173.717 19.57 172.835 20.47 171.719 21.136C170.603 21.784 169.343 22.108 167.939 22.108ZM167.939 19.678C168.857 19.678 169.676 19.462 170.396 19.03C171.116 18.58 171.683 17.968 172.097 17.194C172.511 16.42 172.718 15.556 172.718 14.602C172.718 13.63 172.511 12.766 172.097 12.01C171.683 11.254 171.116 10.66 170.396 10.228C169.676 9.778 168.857 9.553 167.939 9.553C167.039 9.553 166.22 9.778 165.482 10.228C164.762 10.66 164.186 11.254 163.754 12.01C163.34 12.766 163.133 13.63 163.133 14.602C163.133 15.556 163.34 16.42 163.754 17.194C164.186 17.968 164.762 18.58 165.482 19.03C166.22 19.462 167.039 19.678 167.939 19.678ZM186.384 22.108C185.07 22.108 183.891 21.784 182.847 21.136C181.803 20.47 180.975 19.579 180.363 18.463C179.769 17.329 179.472 16.051 179.472 14.629C179.472 13.207 179.796 11.929 180.444 10.795C181.11 9.661 182.001 8.77 183.117 8.122C184.251 7.456 185.52 7.123 186.924 7.123C188.328 7.123 189.588 7.456 190.704 8.122C191.82 8.77 192.702 9.661 193.35 10.795C194.016 11.929 194.349 13.207 194.349 14.629H193.296C193.296 16.051 192.99 17.329 192.378 18.463C191.784 19.579 190.965 20.47 189.921 21.136C188.877 21.784 187.698 22.108 186.384 22.108ZM186.924 19.678C187.842 19.678 188.661 19.462 189.381 19.03C190.101 18.58 190.668 17.977 191.082 17.221C191.496 16.447 191.703 15.583 191.703 14.629C191.703 13.657 191.496 12.793 191.082 12.037C190.668 11.263 190.101 10.66 189.381 10.228C188.661 9.778 187.842 9.553 186.924 9.553C186.024 9.553 185.205 9.778 184.467 10.228C183.747 10.66 183.171 11.263 182.739 12.037C182.325 12.793 182.118 13.657 182.118 14.629C182.118 15.583 182.325 16.447 182.739 17.221C183.171 17.977 183.747 18.58 184.467 19.03C185.205 19.462 186.024 19.678 186.924 19.678ZM192.972 22.027C192.576 22.027 192.243 21.901 191.973 21.649C191.721 21.379 191.595 21.046 191.595 20.65V16.519L192.108 13.657L194.349 14.629V20.65C194.349 21.046 194.214 21.379 193.944 21.649C193.692 21.901 193.368 22.027 192.972 22.027Z" fill="black"/>
</svg>
