<svg width="14" height="14" viewBox="0 0 14 14" fill="none" xmlns="http://www.w3.org/2000/svg">
<path d="M11.0871 5.7743C11.0871 6.94668 10.7065 8.02967 10.0654 8.90832L13.299 12.1445C13.6183 12.4638 13.6183 12.9823 13.299 13.3016C12.9797 13.6208 12.4612 13.6208 12.142 13.3016L8.90832 10.0654C8.02968 10.709 6.94669 11.0871 5.77431 11.0871C2.83952 11.0871 0.461548 8.70909 0.461548 5.7743C0.461548 2.83951 2.83952 0.46154 5.77431 0.46154C8.7091 0.46154 11.0871 2.83951 11.0871 5.7743ZM5.77431 9.45236C6.25732 9.45236 6.7356 9.35723 7.18184 9.17239C7.62808 8.98755 8.03355 8.71662 8.37509 8.37508C8.71663 8.03354 8.98756 7.62808 9.1724 7.18183C9.35724 6.73559 9.45237 6.25731 9.45237 5.7743C9.45237 5.29129 9.35724 4.81301 9.1724 4.36677C8.98756 3.92052 8.71663 3.51506 8.37509 3.17352C8.03355 2.83198 7.62808 2.56105 7.18184 2.37621C6.7356 2.19137 6.25732 2.09624 5.77431 2.09624C5.2913 2.09624 4.81302 2.19137 4.36677 2.37621C3.92053 2.56105 3.51506 2.83198 3.17352 3.17352C2.83198 3.51506 2.56106 3.92052 2.37622 4.36677C2.19138 4.81301 2.09624 5.29129 2.09624 5.7743C2.09624 6.25731 2.19138 6.73559 2.37622 7.18183C2.56106 7.62808 2.83198 8.03354 3.17352 8.37508C3.51506 8.71662 3.92053 8.98755 4.36677 9.17239C4.81302 9.35723 5.2913 9.45236 5.77431 9.45236Z" fill="white"/>
</svg>
